# xmcd
#
# Track frame offsets:
#	150
#	17878
#	37919
#	55908
#	71180
#	94160
#	120407
#	151213
#
# Disc length: 2260 seconds
#
# Revision: 1
# Processed by: cddbd v1.5.2PL0 Copyright (c) Steve Scherf et al.
# Submitted via: audiograbber 1.83.01
#
DISCID=6108d208
DTITLE=Magnolia Beacon - Magnolia Beacon
DYEAR=1900
DGENRE=Country
TTITLE0=Waiting
TTITLE1=Walking
TTITLE2=Jolene
TTITLE3=Lousey Bitch
TTITLE4=Mariachi Walz
TTITLE5=Margarita
TTITLE6=So Long
TTITLE7=All My Stars
EXTD=
EXTT0=
EXTT1=
EXTT2=
EXTT3=
EXTT4=
EXTT5=
EXTT6=
EXTT7=
PLAYORDER=
